#!OML:ASF I:\Actors\actors\Patient Classification 2\Patient 1\Session 1\actor1.ASF
:FULLY-SPECIFIED
:DEGREES
384
root -1.00921 18.2084 4.97672 2.22689 1.58575 -2.55659
lowerback 22.8239 0.881941 0.344454
upperback 8.81947 1.30874 1.78154
thorax -3.11522 0.622309 1.39027
lowerneck -22.5994 -6.61995 -7.23326
upperneck 3.91684 -7.56995 7.34906
head 5.29392 -3.3027 2.65662
rclavicle -8.54774e-015 -1.45113e-014
rhumerus 37.544 13.8171 -55.1584
rradius 42.1041
rwrist 2.59019
rhand -13.3617 -30.8012
rfingers 7.12502
rthumb 12.7445 -60.3923
lclavicle -8.54774e-015 -1.45113e-014
lhumerus 41.7729 -11.0887 75.0685
lradius 34.3143
lwrist -5.22161
lhand -7.61229 -12.5074
lfingers 7.12502
lthumb 18.2819 16.6535
rfemur 13.2762 -4.02542 18.2161
rtibia -19.2243
rfoot -6.58235 -21.9947
rtoes 2.42631
lfemur 13.1214 -4.10042 -12.8408
ltibia -23.7044
lfoot 8.5226 12.6845
ltoes -13.2417
385
root -1.01794 18.206 4.98275 1.87321 1.48646 -2.48009
lowerback 22.6147 0.897225 0.316404
upperback 8.72428 1.32326 1.80962
thorax -3.11633 0.628993 1.43405
lowerneck -22.9313 -6.59114 -7.30735
upperneck 3.85524 -7.48878 7.41017
head 5.32279 -3.25221 2.69268
rclavicle 3.77691e-015 1.39149e-015
rhumerus 38.0923 12.9827 -56.4325
rradius 41.1882
rwrist 3.94046
rhand -12.8724 -30.2952
rfingers 7.12502
rthumb 13.2162 -59.8563
lclavicle 3.77691e-015 1.39149e-015
lhumerus 42.3802 -9.97377 76.5927
lradius 33.2772
lwrist -6.43602
lhand -7.61205 -12.4456
lfingers 7.12502
lthumb 18.2821 16.7153
rfemur 13.6159 -3.97883 18.1368
rtibia -19.0722
rfoot -6.71145 -21.8766
rtoes 2.38623
lfemur 13.4711 -4.22781 -12.9351
ltibia -23.4997
lfoot 8.26006 12.803
ltoes -13.1495
386
root -1.02587 18.2023 4.98874 1.46515 1.4364 -2.39327
lowerback 22.4483 0.894333 0.334585
upperback 8.65159 1.3237 1.82491
thorax -3.11233 0.629813 1.44099
lowerneck -23.3323 -6.57702 -7.43115
upperneck 3.83085 -7.41709 7.54151
head 5.37924 -3.19983 2.75671
rclavicle 3.37934e-015 0
rhumerus 38.0291 11.0864 -59.6421
rradius 40.4759
rwrist 7.53237
rhand -12.0756 -29.3639
rfingers 7.12502
rthumb 13.9841 -58.8735
lclavicle 3.37934e-015 0
lhumerus 42.9798 -9.03804 77.9384
lradius 32.3962
lwrist -7.60382
lhand -7.42237 -12.4808
lfingers 7.12502
lthumb 18.4646 16.6628
rfemur 14.0052 -3.92641 18.0338
rtibia -18.8979
rfoot -6.98082 -21.763
rtoes 2.84641
lfemur 13.8769 -4.36742 -13.0472
ltibia -23.3152
lfoot 8.0135 12.8947
ltoes -13.016
387
root -1.03275 18.1945 4.99597 1.05678 1.39558 -2.39124
lowerback 22.2657 0.869909 0.430591
upperback 8.56802 1.31342 1.86434
thorax -3.11044 0.62625 1.43216
lowerneck -23.6058 -6.45466 -7.54133
upperneck 3.68466 -7.20977 7.69812
head 5.36875 -3.08277 2.84748
rclavicle -1.07344e-014 -1.59028e-015
rhumerus 39.4135 11.804 -57.9672
rradius 39.3152
rwrist 6.0137
rhand -12.2531 -29.5076
rfingers 7.12502
rthumb 13.8131 -59.0289
lclavicle -1.07344e-014 -1.59028e-015
lhumerus 43.4403 -8.3733 78.8326
lradius 31.8339
lwrist -8.37073
lhand -7.07386 -12.3017
lfingers 7.12502
lthumb 18.7998 16.8098
rfemur 14.4071 -3.88533 18.0204
rtibia -18.7487
rfoot -7.21502 -21.6508
rtoes 2.98222
lfemur 14.2859 -4.41167 -13.0629
ltibia -23.1384
lfoot 7.82457 12.8805
ltoes -13.0862
388
root -1.04013 18.188 5.00404 0.623718 1.36377 -2.41601
lowerback 22.1331 0.844561 0.536928
upperback 8.42834 1.30561 1.90471
thorax -3.194 0.624107 1.41685
lowerneck -23.77 -6.24736 -7.57685
upperneck 3.53146 -6.90889 7.77251
head 5.32629 -2.92736 2.9138
rclavicle -8.74653e-015 7.55382e-015
rhumerus 39.3538 10.4322 -60.423
rradius 38.7247
rwrist 8.76363
rhand -11.5031 -29.0897
rfingers 7.12502
rthumb 14.5358 -58.5605
lclavicle -8.74653e-015 7.55382e-015
lhumerus 43.7634 -7.81915 79.6567
lradius 31.2949
lwrist -9.01892
lhand -6.92026 -12.1792
lfingers 7.12502
lthumb 18.9475 16.918
rfemur 14.8564 -3.84832 18.0367
rtibia -18.631
rfoot -7.41789 -21.5758
rtoes 2.83071
lfemur 14.7281 -4.47264 -13.0491
ltibia -22.9772
lfoot 7.62604 12.8825
ltoes -13.0235
389
root -1.05 18.179 5.011 0.103031 1.35573 -2.37968
lowerback 21.9858 0.812886 0.569118
upperback 8.35191 1.27227 1.92761
thorax -3.20201 0.608402 1.43187
lowerneck -24.1787 -6.15128 -7.48719
upperneck 3.61492 -6.76826 7.6724
head 5.39418 -2.85406 2.879
rclavicle -3.77691e-015 -2.98177e-015
rhumerus 40.4746 11.3708 -58.5288
rradius 37.9641
rwrist 6.66022
rhand -11.6267 -29.6093
rfingers 7.12502
rthumb 14.4167 -59.0886
lclavicle -3.77691e-015 -2.98177e-015
lhumerus 44.151 -7.51409 80.0679
lradius 30.7869
lwrist -8.99111
lhand -7.04816 -12.0663
lfingers 7.12502
lthumb 18.8245 17.0429
rfemur 15.4278 -3.83455 17.9875
rtibia -18.5386
rfoot -7.61666 -21.507
rtoes 2.95589
lfemur 15.2848 -4.55383 -13.1076
ltibia -22.8611
lfoot 7.41953 12.8896
ltoes -12.9394
